<?xml version="1.0" encoding="utf-8"?>
<!-- Generator: Adobe Illustrator 27.5.0, SVG Export Plug-In . SVG Version: 6.00 Build 0)  -->
<svg version="1.1" xmlns="http://www.w3.org/2000/svg" xmlns:xlink="http://www.w3.org/1999/xlink" x="0px" y="0px"
	 viewBox="0 0 500 500" style="enable-background:new 0 0 500 500;" xml:space="preserve">
<g id="BACKGROUND">
	<rect style="fill:#E1F4FF;" width="500" height="500"/>
</g>
<g id="OBJECTS">
	<g>
		<path style="fill:#A6D7FF;" d="M451.57,103.008c0-1.628-1.324-2.952-2.952-2.952c-1.628,0-2.952,1.324-2.952,2.952
			c0,1.456,1.063,2.662,2.452,2.901v53.065h-29v41.225h1v-40.225h29v-54.065C450.508,105.67,451.57,104.464,451.57,103.008z
			 M448.618,104.96c-1.076,0-1.952-0.876-1.952-1.952c0-1.077,0.876-1.952,1.952-1.952c1.076,0,1.952,0.875,1.952,1.952
			C450.57,104.084,449.694,104.96,448.618,104.96z"/>
		<path style="fill:#A6D7FF;" d="M404.427,128.143c-1.628,0-2.952,1.324-2.952,2.952c0,1.456,1.063,2.662,2.452,2.901v66.203h1
			v-66.203c1.39-0.239,2.452-1.445,2.452-2.901C407.379,129.467,406.055,128.143,404.427,128.143z M404.427,133.047
			c-1.076,0-1.952-0.876-1.952-1.952c0-1.077,0.876-1.952,1.952-1.952c1.076,0,1.952,0.875,1.952,1.952
			C406.379,132.171,405.503,133.047,404.427,133.047z"/>
		<path style="fill:#A6D7FF;" d="M335.464,62.525h-54.066c-0.239-1.39-1.444-2.452-2.901-2.452c-1.628,0-2.952,1.324-2.952,2.952
			s1.324,2.952,2.952,2.952c1.457,0,2.662-1.063,2.901-2.452h53.066v13h41.224v-1h-40.224V62.525z M278.496,64.978
			c-1.076,0-1.952-0.875-1.952-1.952c0-1.076,0.876-1.952,1.952-1.952s1.952,0.876,1.952,1.952
			C280.448,64.103,279.572,64.978,278.496,64.978z"/>
		<path style="fill:#A6D7FF;" d="M325.232,84.724c-1.628,0-2.952,1.324-2.952,2.952c0,1.628,1.324,2.952,2.952,2.952
			c1.457,0,2.662-1.063,2.901-2.452h46.203v-1h-46.203C327.895,85.786,326.689,84.724,325.232,84.724z M325.232,89.628
			c-1.076,0-1.952-0.876-1.952-1.952c0-1.077,0.876-1.952,1.952-1.952c1.076,0,1.952,0.875,1.952,1.952
			C327.185,88.752,326.309,89.628,325.232,89.628z"/>
		<path style="fill:#A6D7FF;" d="M258.885,162.898c1.628,0,2.952-1.324,2.952-2.952c0-1.456-1.063-2.662-2.452-2.901v-46.203h-1
			v46.203c-1.39,0.239-2.452,1.445-2.452,2.901C255.933,161.573,257.257,162.898,258.885,162.898z M258.885,157.993
			c1.076,0,1.952,0.876,1.952,1.952c0,1.077-0.876,1.952-1.952,1.952c-1.076,0-1.952-0.875-1.952-1.952
			C256.933,158.869,257.809,157.993,258.885,157.993z"/>
		<path style="fill:#A6D7FF;" d="M268.837,147.204v-46.203h-1v46.203c-1.39,0.238-2.452,1.444-2.452,2.901
			c0,1.628,1.324,2.952,2.952,2.952c1.628,0,2.952-1.324,2.952-2.952C271.289,148.648,270.227,147.442,268.837,147.204z
			 M268.337,152.058c-1.076,0-1.952-0.876-1.952-1.952c0-1.077,0.876-1.952,1.952-1.952s1.952,0.875,1.952,1.952
			C270.289,151.182,269.413,152.058,268.337,152.058z"/>
		<path style="fill:#A6D7FF;" d="M82.905,328.085v-1H36.701c-0.239-1.39-1.444-2.452-2.9-2.452c-1.629,0-2.953,1.324-2.953,2.952
			c0,1.628,1.324,2.952,2.953,2.952c1.456,0,2.661-1.063,2.9-2.452H82.905z M33.801,329.537c-1.077,0-1.953-0.876-1.953-1.952
			c0-1.076,0.876-1.952,1.953-1.952c1.075,0,1.951,0.876,1.951,1.952C35.752,328.661,34.876,329.537,33.801,329.537z"/>
		<path style="fill:#A6D7FF;" d="M43.641,334.085c-1.628,0-2.952,1.324-2.952,2.952s1.324,2.952,2.952,2.952
			c1.456,0,2.662-1.063,2.901-2.452h46.203v-1H46.542C46.303,335.147,45.097,334.085,43.641,334.085z M43.641,338.989
			c-1.077,0-1.952-0.876-1.952-1.952s0.875-1.952,1.952-1.952c1.076,0,1.952,0.876,1.952,1.952S44.717,338.989,43.641,338.989z"/>
		<path style="fill:#A6D7FF;" d="M262.401,430.846c-1.456,0-2.661,1.063-2.9,2.451h-53.066v-29h-41.225v1h40.225v29h54.066
			c0.239,1.39,1.444,2.453,2.9,2.453c1.628,0,2.953-1.325,2.953-2.953C265.354,432.17,264.029,430.846,262.401,430.846z
			 M262.401,435.75c-1.076,0-1.951-0.876-1.951-1.953c0-1.076,0.875-1.951,1.951-1.951c1.077,0,1.953,0.875,1.953,1.951
			C264.354,434.874,263.478,435.75,262.401,435.75z"/>
		<path style="fill:#A6D7FF;" d="M234.315,392.559c1.628,0,2.952-1.325,2.952-2.953c0-1.627-1.324-2.951-2.952-2.951
			c-1.457,0-2.663,1.063-2.902,2.451h-66.202v1h66.202C231.652,391.495,232.858,392.559,234.315,392.559z M234.315,387.654
			c1.076,0,1.952,0.875,1.952,1.951c0,1.077-0.876,1.953-1.952,1.953c-1.077,0-1.952-0.876-1.952-1.953
			C232.363,388.529,233.238,387.654,234.315,387.654z"/>
		<path style="fill:#A6D7FF;" d="M64.707,453.549h-13v24.066c-1.39,0.239-2.451,1.444-2.451,2.901c0,1.628,1.323,2.952,2.951,2.952
			c1.628,0,2.953-1.324,2.953-2.952c0-1.457-1.063-2.662-2.453-2.901v-23.066h13v-41.224h-1V453.549z M54.16,480.517
			c0,1.076-0.876,1.952-1.953,1.952c-1.076,0-1.951-0.876-1.951-1.952s0.875-1.952,1.951-1.952
			C53.284,478.565,54.16,479.44,54.16,480.517z"/>
		<path style="fill:#A6D7FF;" d="M77.357,460.879v-46.203h-1v46.203c-1.39,0.239-2.452,1.444-2.452,2.901
			c0,1.628,1.324,2.952,2.952,2.952c1.628,0,2.952-1.324,2.952-2.952C79.81,462.323,78.747,461.118,77.357,460.879z M76.857,465.732
			c-1.077,0-1.952-0.876-1.952-1.952c0-1.076,0.875-1.952,1.952-1.952c1.076,0,1.952,0.876,1.952,1.952
			C78.81,464.856,77.934,465.732,76.857,465.732z"/>
		<path style="fill:#A6D7FF;" d="M393.357,46.451h13V22.385c1.39-0.239,2.451-1.443,2.451-2.9c0-1.628-1.322-2.953-2.951-2.953
			c-1.628,0.001-2.953,1.324-2.953,2.953c0,1.457,1.064,2.661,2.453,2.901v23.065h-12.999l-0.001,41.225l1-0.001V46.451z
			 M403.904,19.484c0-1.076,0.876-1.952,1.953-1.953c1.076,0.001,1.951,0.877,1.951,1.953c0,1.075-0.875,1.952-1.951,1.951
			C404.78,21.437,403.904,20.56,403.904,19.484z"/>
		<path style="fill:#A6D7FF;" d="M380.707,39.122v46.202h1V39.122c1.39-0.24,2.452-1.445,2.453-2.902
			c-0.001-1.627-1.325-2.951-2.953-2.952c-1.628,0.001-2.952,1.325-2.952,2.952C378.255,37.677,379.317,38.883,380.707,39.122z
			 M381.208,34.268c1.076,0,1.951,0.876,1.952,1.952c-0.001,1.077-0.876,1.952-1.952,1.952c-1.077,0.001-1.953-0.875-1.952-1.952
			C379.255,35.144,380.131,34.269,381.208,34.268z"/>
	</g>
	<path style="opacity:0.5;fill:#A6D7FF;" d="M448.618,375.213c0,1.434-1.162,2.596-2.596,2.596H34.214
		c-1.434,0-2.596-1.162-2.596-2.596l0,0c0-1.433,1.162-2.595,2.596-2.595h411.809C447.456,372.618,448.618,373.78,448.618,375.213
		L448.618,375.213z"/>
	<g>
		<g>
			<path style="fill:#223D94;" d="M223.784,358.405c0,7.816-6.396,14.213-14.214,14.213H92.661c-7.816,0-14.213-6.396-14.213-14.213
				V133.742c0-7.817,6.396-14.214,14.213-14.214H209.57c7.817,0,14.214,6.396,14.214,14.214V358.405z"/>
			<path style="fill:#FFFFFF;" d="M160.591,356.821c0,5.234-4.242,9.477-9.475,9.477c-5.233,0-9.476-4.242-9.476-9.477
				c0-5.232,4.242-9.475,9.476-9.475C156.349,347.347,160.591,351.589,160.591,356.821z"/>
			<g>
				<path style="fill:#FFFFFF;" d="M169.771,135.62c0,1.144-0.928,2.072-2.072,2.072h-33.167c-1.145,0-2.072-0.929-2.072-2.072l0,0
					c0-1.146,0.928-2.073,2.072-2.073h33.167C168.844,133.547,169.771,134.475,169.771,135.62L169.771,135.62z"/>
				<path style="fill:#FFFFFF;" d="M152.992,127.654c0,1.036-0.841,1.876-1.876,1.876c-1.036,0-1.876-0.84-1.876-1.876
					c0-1.036,0.84-1.875,1.876-1.875C152.151,125.779,152.992,126.618,152.992,127.654z"/>
			</g>
			<g>
				<rect x="84.817" y="142.807" style="fill:#DCC5F9;" width="132.597" height="199.505"/>
				<polygon style="opacity:0.5;fill:#D0B7F9;" points="84.817,342.311 217.414,142.807 217.414,342.311 				"/>
			</g>
		</g>
		<g>
			<g>
				<g>
					<rect x="96.218" y="153.169" style="fill:#FFFFFF;" width="109.797" height="48.759"/>
					<g style="opacity:0.4;">
						<polygon style="fill:#9EC7EF;" points="142.118,164.95 158.54,186.625 167.54,174.744 181.371,192.997 163.366,192.997 
							153.708,192.997 120.861,192.997 						"/>
						<path style="fill:#9EC7EF;" d="M156.188,169.836c0,1.862,1.508,3.372,3.368,3.372c1.864,0,3.372-1.51,3.372-3.372
							c0-1.864-1.508-3.373-3.372-3.373C157.696,166.463,156.188,167.972,156.188,169.836z"/>
					</g>
				</g>
				<g>
					<g>
						<g>
							<g>
								<rect x="96.218" y="218.675" style="fill:#B492F4;" width="49.596" height="2.214"/>
								<rect x="96.218" y="224.093" style="fill:#B492F4;" width="49.596" height="2.214"/>
							</g>
							<g>
								<rect x="96.218" y="229.51" style="fill:#B492F4;" width="49.596" height="2.215"/>
								<rect x="96.218" y="234.928" style="fill:#B492F4;" width="49.596" height="2.214"/>
							</g>
						</g>
						<rect x="96.218" y="208.971" style="fill:#FFFFFF;" width="49.596" height="4.875"/>
					</g>
					<g>
						<rect x="156.419" y="208.971" style="fill:#FFFFFF;" width="49.596" height="4.875"/>
						<g>
							<g>
								<rect x="156.419" y="218.675" style="fill:#B492F4;" width="49.596" height="2.214"/>
								<rect x="156.419" y="224.093" style="fill:#B492F4;" width="49.596" height="2.214"/>
							</g>
							<g>
								<rect x="156.419" y="229.51" style="fill:#B492F4;" width="49.596" height="2.215"/>
								<rect x="156.419" y="234.928" style="fill:#B492F4;" width="49.596" height="2.214"/>
							</g>
						</g>
					</g>
				</g>
				<g>
					<g>
						<g>
							<g>
								<rect x="96.218" y="253.348" style="fill:#B492F4;" width="49.596" height="2.214"/>
								<rect x="96.218" y="258.766" style="fill:#B492F4;" width="49.596" height="2.214"/>
							</g>
							<g>
								<rect x="96.218" y="264.184" style="fill:#B492F4;" width="49.596" height="2.213"/>
								<rect x="96.218" y="269.601" style="fill:#B492F4;" width="49.596" height="2.214"/>
							</g>
						</g>
						<rect x="96.218" y="243.643" style="fill:#FFFFFF;" width="49.596" height="4.876"/>
					</g>
					<g>
						<rect x="156.419" y="243.643" style="fill:#FFFFFF;" width="49.596" height="4.876"/>
						<g>
							<g>
								<rect x="156.419" y="253.348" style="fill:#B492F4;" width="49.596" height="2.214"/>
								<rect x="156.419" y="258.766" style="fill:#B492F4;" width="49.596" height="2.214"/>
							</g>
							<g>
								<rect x="156.419" y="264.184" style="fill:#B492F4;" width="49.596" height="2.213"/>
								<rect x="156.419" y="269.601" style="fill:#B492F4;" width="49.596" height="2.214"/>
							</g>
						</g>
					</g>
				</g>
				<g>
					<rect x="96.218" y="281.747" style="fill:#FFFFFF;" width="50.564" height="50.564"/>
					<g style="opacity:0.4;">
						<polygon style="fill:#9EC7EF;" points="115.647,298.846 125.443,311.772 130.811,304.686 139.061,315.573 128.322,315.573 
							122.561,315.573 102.969,315.573 						"/>
						<path style="fill:#9EC7EF;" d="M124.042,301.759c0,1.11,0.898,2.012,2.007,2.012c1.113,0,2.013-0.901,2.013-2.012
							c0-1.112-0.899-2.012-2.013-2.012C124.94,299.747,124.042,300.647,124.042,301.759z"/>
					</g>
				</g>
			</g>
			<g>
				<rect x="156.419" y="281.747" style="fill:#FFFFFF;" width="49.596" height="4.876"/>
				<g>
					<g>
						<g>
							<rect x="156.419" y="291.452" style="fill:#B492F4;" width="49.596" height="2.214"/>
							<rect x="156.419" y="296.87" style="fill:#B492F4;" width="49.596" height="2.214"/>
						</g>
						<g>
							<rect x="156.419" y="302.287" style="fill:#B492F4;" width="49.596" height="2.214"/>
							<rect x="156.419" y="307.705" style="fill:#B492F4;" width="49.596" height="2.214"/>
						</g>
					</g>
					<g>
						<g>
							<rect x="156.419" y="313.123" style="fill:#B492F4;" width="49.596" height="2.214"/>
							<rect x="156.419" y="318.54" style="fill:#B492F4;" width="49.596" height="2.214"/>
						</g>
						<g>
							<rect x="156.419" y="323.958" style="fill:#B492F4;" width="49.596" height="2.214"/>
							<rect x="156.419" y="329.376" style="fill:#B492F4;" width="49.596" height="2.213"/>
						</g>
					</g>
				</g>
			</g>
		</g>
	</g>
	<g>
		<g>
			<g>
				<path style="fill:#4D7AC1;" d="M393.531,356.936c0,4.348-3.557,7.904-7.902,7.904H193.395c-4.347,0-7.902-3.557-7.902-7.904
					V225.434c0-4.347,3.556-7.903,7.902-7.903h192.233c4.346,0,7.902,3.557,7.902,7.903V356.936z"/>
				<rect x="193.094" y="227.134" style="fill:#223D94;" width="192.834" height="128.102"/>
			</g>
			<g>
				<path style="fill:#5BA1F4;" d="M169.702,355.272v8.244c0,5.006,4.096,9.102,9.102,9.102h221.415
					c5.006,0,9.104-4.096,9.104-9.102v-8.244H169.702z"/>
				<path style="fill:#8DC6FF;" d="M249,355.272v2.787c0,1.693,1.383,3.078,3.076,3.078h74.871c1.693,0,3.078-1.385,3.078-3.078
					v-2.787H249z"/>
			</g>
		</g>
		<g>
			<g>
				<g>
					<rect x="201.219" y="235.74" style="fill:#9EC7EF;" width="40" height="3"/>
					<rect x="255.885" y="235.74" style="fill:#DCC5F9;" width="88.667" height="3"/>
				</g>
				<g>
					<rect x="201.219" y="245.74" style="fill:#9EC7EF;" width="27.628" height="3"/>
					<rect x="238.977" y="245.74" style="fill:#DCC5F9;" width="61.242" height="3"/>
				</g>
				<g>
					<rect x="201.219" y="255.74" style="fill:#9EC7EF;" width="30.232" height="3"/>
					<rect x="242.536" y="255.74" style="fill:#DCC5F9;" width="67.016" height="3"/>
				</g>
				<g>
					<rect x="201.219" y="265.74" style="fill:#9EC7EF;" width="18.118" height="3"/>
					<rect x="225.98" y="265.74" style="fill:#DCC5F9;" width="110.904" height="3"/>
				</g>
			</g>
			<g>
				<g>
					<rect x="201.219" y="275.74" style="fill:#9EC7EF;" width="40" height="3"/>
					<rect x="255.885" y="275.74" style="fill:#DCC5F9;" width="88.667" height="3"/>
				</g>
				<g>
					<rect x="201.219" y="285.74" style="fill:#9EC7EF;" width="27.628" height="3"/>
					<rect x="238.977" y="285.74" style="fill:#DCC5F9;" width="61.242" height="3"/>
				</g>
				<g>
					<rect x="201.219" y="295.74" style="fill:#9EC7EF;" width="34.419" height="3"/>
					<rect x="248.257" y="295.74" style="fill:#DCC5F9;" width="76.295" height="3"/>
				</g>
				<g>
					<rect x="201.219" y="305.74" style="fill:#9EC7EF;" width="18.118" height="3"/>
					<rect x="225.98" y="305.74" style="fill:#DCC5F9;" width="110.904" height="3"/>
				</g>
			</g>
			<g>
				<g>
					<rect x="201.219" y="315.74" style="fill:#9EC7EF;" width="43.441" height="3"/>
					<rect x="260.589" y="315.74" style="fill:#DCC5F9;" width="96.297" height="3"/>
				</g>
				<g>
					<rect x="201.219" y="325.74" style="fill:#9EC7EF;" width="37.116" height="3"/>
					<rect x="251.943" y="325.74" style="fill:#DCC5F9;" width="82.275" height="3"/>
				</g>
				<g>
					<rect x="201.219" y="335.74" style="fill:#9EC7EF;" width="32.834" height="3"/>
					<rect x="246.091" y="335.74" style="fill:#DCC5F9;" width="72.783" height="3"/>
				</g>
				<g>
					<rect x="201.219" y="345.74" style="fill:#9EC7EF;" width="19.678" height="3"/>
					<rect x="228.111" y="345.74" style="fill:#DCC5F9;" width="120.447" height="3"/>
				</g>
			</g>
		</g>
	</g>
	<g>
		<path style="fill:#A6D7FF;" d="M431.832,308.76v-10.73h-5.808c-0.834-5.094-2.838-9.792-5.726-13.814l4.108-4.109l-7.586-7.587
			l-4.109,4.109c-4.023-2.889-8.722-4.892-13.815-5.728v-5.807h-10.73v5.807c-5.094,0.835-9.791,2.839-13.814,5.728l-4.108-4.109
			l-7.588,7.587l4.108,4.109c-2.888,4.022-4.892,8.721-5.726,13.814h-5.808v10.73h5.808c0.835,5.094,2.839,9.791,5.727,13.814
			l-4.109,4.109l7.588,7.587l4.108-4.109c4.024,2.888,8.722,4.893,13.814,5.727v5.808h10.73v-5.808
			c5.094-0.834,9.791-2.839,13.814-5.727l4.111,4.109l7.587-7.587l-4.11-4.11c2.888-4.022,4.893-8.72,5.727-13.813H431.832z
			 M393.531,325.47c-12.192,0-22.076-9.883-22.076-22.076c0-12.191,9.884-22.076,22.076-22.076c12.192,0,22.076,9.885,22.076,22.076
			C415.607,315.587,405.724,325.47,393.531,325.47z"/>
		<path style="fill:#A6D7FF;" d="M274.116,224.699v-14.338h-7.76c-1.115-6.807-3.793-13.083-7.651-18.459l5.49-5.491l-10.137-10.138
			l-5.491,5.491c-5.376-3.859-11.653-6.537-18.46-7.653v-7.759H215.77v7.759c-6.807,1.116-13.084,3.794-18.46,7.653l-5.49-5.491
			l-10.139,10.138l5.491,5.491c-3.859,5.376-6.537,11.652-7.652,18.459h-7.76v14.338h7.76c1.116,6.807,3.794,13.083,7.652,18.459
			l-5.491,5.491l10.139,10.138l5.491-5.491c5.376,3.858,11.652,6.537,18.459,7.652v7.76h14.337v-7.76
			c6.807-1.115,13.083-3.794,18.458-7.652l5.493,5.491l10.138-10.138l-5.492-5.491c3.858-5.376,6.537-11.652,7.652-18.459H274.116z
			 M222.938,247.027c-16.291,0-29.498-13.206-29.498-29.497c0-16.292,13.207-29.499,29.498-29.499
			c16.292,0,29.498,13.207,29.498,29.499C252.436,233.821,239.23,247.027,222.938,247.027z"/>
		<path style="fill:#A6D7FF;" d="M380.031,151.427v-9.47h-5.125c-0.735-4.495-2.504-8.642-5.053-12.191l3.626-3.627l-6.695-6.695
			l-3.626,3.627c-3.551-2.55-7.697-4.318-12.192-5.055v-5.125h-9.47v5.125c-4.495,0.736-8.641,2.505-12.191,5.055l-3.626-3.627
			l-6.696,6.695l3.625,3.627c-2.548,3.55-4.316,7.696-5.053,12.191h-5.125v9.47h5.125c0.737,4.495,2.506,8.641,5.054,12.191
			l-3.626,3.627l6.696,6.695l3.626-3.627c3.551,2.549,7.696,4.318,12.191,5.054v5.126h9.47v-5.126
			c4.495-0.735,8.641-2.505,12.19-5.054l3.628,3.627l6.696-6.695l-3.628-3.628c2.549-3.55,4.318-7.695,5.054-12.19H380.031z
			 M346.23,166.174c-10.76,0-19.483-8.722-19.483-19.482c0-10.76,8.723-19.483,19.483-19.483c10.76,0,19.482,8.724,19.482,19.483
			C365.713,157.452,356.99,166.174,346.23,166.174z"/>
	</g>
	<g>
		<g>
			<g>
				<path style="fill:#EFC45E;" d="M352.445,205.618h-62.84v-62.84h62.84V205.618z M290.605,204.618h60.84v-60.84h-60.84V204.618z"
					/>
			</g>
			<rect x="295.024" y="148.197" style="fill:#EFC45E;" width="52.002" height="52.002"/>
			
				<text transform="matrix(1 0 0 1 301.3154 177.7021)" style="fill:#223D94; font-family:'Montserrat-Bold'; font-size:12px; letter-spacing:1;">HTML</text>
		</g>
		<g>
			<g>
				<path style="fill:#7946F2;" d="M284.348,134.697h-42.926V91.771h42.926V134.697z M242.422,133.697h40.926V92.771h-40.926
					V133.697z"/>
			</g>
			<rect x="245.257" y="95.605" style="fill:#7946F2;" width="35.256" height="35.257"/>
			
				<text transform="matrix(1 0 0 1 254.4785 116.9819)" style="fill:#FFFFFF; font-family:'Montserrat-Bold'; font-size:12.8366px; letter-spacing:1;">JS</text>
		</g>
		<g>
			<g>
				<path style="fill:#5BA1F4;" d="M410.494,104.391h-42.926V61.465h42.926V104.391z M368.568,103.391h40.926V62.465h-40.926
					V103.391z"/>
			</g>
			<rect x="371.403" y="65.3" style="fill:#5BA1F4;" width="35.256" height="35.256"/>
			
				<text transform="matrix(1 0 0 1 376.6846 86.6758)" style="fill:#FFFFFF; font-family:'Montserrat-Bold'; font-size:11px; letter-spacing:1;">CSS</text>
		</g>
		<g>
			<g>
				<path style="fill:#7946F2;" d="M429.982,237.652h-51.111V186.54h51.111V237.652z M379.871,236.652h49.111V187.54h-49.111
					V236.652z"/>
			</g>
			<rect x="383.357" y="191.026" style="fill:#7946F2;" width="42.139" height="42.14"/>
			
				<text transform="matrix(1 0 0 1 388.5957 216.5752)" style="fill:#FFFFFF; font-family:'Montserrat-Bold'; font-size:10px; letter-spacing:1;">JAVA</text>
		</g>
		<g>
			<g>
				<path style="fill:#5BA1F4;" d="M113.157,362.796H62.046v-51.111h51.111V362.796z M63.046,361.796h49.111v-49.111H63.046V361.796
					z"/>
			</g>
			<rect x="66.532" y="316.171" style="fill:#5BA1F4;" width="42.139" height="42.14"/>
			
				<text transform="matrix(1 0 0 1 73.769 341.7197)" style="fill:#FFFFFF; font-family:'Montserrat-Bold'; font-size:11px; letter-spacing:1;">PHP</text>
		</g>
		<g>
			<g>
				<path style="fill:#7946F2;" d="M182.536,422.108h-62.84v-62.84h62.84V422.108z M120.696,421.108h60.84v-60.84h-60.84V421.108z"
					/>
			</g>
			<rect x="125.115" y="364.686" style="fill:#7946F2;" width="52.002" height="52.003"/>
			
				<text transform="matrix(1 0 0 1 135.1333 395.1924)" style="fill:#FFFFFF; font-family:'Montserrat-Bold'; font-size:15px; letter-spacing:1;">C++</text>
		</g>
		<g>
			<g>
				<path style="fill:#EFC45E;" d="M91.33,438.152H48.404v-42.927H91.33V438.152z M49.404,437.152H90.33v-40.927H49.404V437.152z"/>
			</g>
			<rect x="52.239" y="399.061" style="fill:#EFC45E;" width="35.256" height="35.256"/>
			
				<text transform="matrix(1 0 0 1 58.9292 420.4375)" style="fill:#223D94; font-family:'Montserrat-Bold'; font-size:12px; letter-spacing:1;">&lt;/&gt;</text>
		</g>
	</g>
	<g>
		<path style="fill:#A6D7FF;" d="M140.07,90.666l-8.557,3.135l8.557,3.109v3.211l-12.231-4.65v-3.34l12.231-4.65V90.666z"/>
		<path style="fill:#A6D7FF;" d="M151.837,81.159h3.572l-8.479,24.204h-3.572L151.837,81.159z"/>
		<path style="fill:#A6D7FF;" d="M170.671,92.131v3.34l-12.23,4.65V96.91l8.557-3.109l-8.557-3.135V87.48L170.671,92.131z"/>
	</g>
	<g>
		<polygon style="fill:#A6D7FF;" points="221.085,60.465 217.335,60.465 217.335,56.715 215.335,56.715 215.335,60.465 
			211.585,60.465 211.585,62.465 215.335,62.465 215.335,66.215 217.335,66.215 217.335,62.465 221.085,62.465 		"/>
		<polygon style="fill:#A6D7FF;" points="430.246,128.53 426.496,128.53 426.496,124.78 424.496,124.78 424.496,128.53 
			420.746,128.53 420.746,130.53 424.496,130.53 424.496,134.28 426.496,134.28 426.496,130.53 430.246,130.53 		"/>
		<polygon style="fill:#A6D7FF;" points="461.07,219.889 457.32,219.889 457.32,216.139 455.32,216.139 455.32,219.889 
			451.57,219.889 451.57,221.889 455.32,221.889 455.32,225.639 457.32,225.639 457.32,221.889 461.07,221.889 		"/>
		<polygon style="fill:#A6D7FF;" points="81.607,55.715 77.857,55.715 77.857,51.965 75.857,51.965 75.857,55.715 72.107,55.715 
			72.107,57.715 75.857,57.715 75.857,61.465 77.857,61.465 77.857,57.715 81.607,57.715 		"/>
		<polygon style="fill:#A6D7FF;" points="61.626,161.898 57.876,161.898 57.876,158.148 55.876,158.148 55.876,161.898 
			52.126,161.898 52.126,163.898 55.876,163.898 55.876,167.648 57.876,167.648 57.876,163.898 61.626,163.898 		"/>
		<polygon style="fill:#A6D7FF;" points="456.32,266.24 452.57,266.24 452.57,262.49 450.57,262.49 450.57,266.24 446.82,266.24 
			446.82,268.24 450.57,268.24 450.57,271.99 452.57,271.99 452.57,268.24 456.32,268.24 		"/>
		<polygon style="fill:#A6D7FF;" points="54.006,257.766 50.256,257.766 50.256,254.016 48.256,254.016 48.256,257.766 
			44.506,257.766 44.506,259.766 48.256,259.766 48.256,263.516 50.256,263.516 50.256,259.766 54.006,259.766 		"/>
		<polygon style="fill:#A6D7FF;" points="260.635,403.297 256.885,403.297 256.885,399.547 254.885,399.547 254.885,403.297 
			251.135,403.297 251.135,405.297 254.885,405.297 254.885,409.047 256.885,409.047 256.885,405.297 260.635,405.297 		"/>
		<polygon style="fill:#A6D7FF;" points="361.636,437.152 357.886,437.152 357.886,433.402 355.886,433.402 355.886,437.152 
			352.136,437.152 352.136,439.152 355.886,439.152 355.886,442.902 357.886,442.902 357.886,439.152 361.636,439.152 		"/>
	</g>
	<g style="opacity:0.5;">
		<g>
			<path style="fill:#5BA1F4;" d="M307.855,434.434c-11.639,0-21.108-9.469-21.108-21.108c0-11.639,9.469-21.107,21.108-21.107
				c11.639,0,21.107,9.469,21.107,21.107C328.963,424.965,319.494,434.434,307.855,434.434z M307.855,393.218
				c-11.087,0-20.108,9.021-20.108,20.107c0,11.088,9.021,20.108,20.108,20.108c11.087,0,20.107-9.021,20.107-20.108
				C327.963,402.238,318.942,393.218,307.855,393.218z"/>
		</g>
		<g>
			<path style="fill:#5BA1F4;" d="M456.321,346.916c-7.075,0-12.832-5.756-12.832-12.832c0-7.074,5.757-12.831,12.832-12.831
				s12.831,5.757,12.831,12.831C469.152,341.16,463.396,346.916,456.321,346.916z M456.321,322.253
				c-6.524,0-11.832,5.308-11.832,11.831c0,6.525,5.308,11.832,11.832,11.832c6.523,0,11.831-5.307,11.831-11.832
				C468.152,327.56,462.845,322.253,456.321,322.253z"/>
		</g>
		<g>
			<path style="fill:#5BA1F4;" d="M419.119,419.636c-5.839,0-10.589-4.751-10.589-10.59c0-5.838,4.75-10.588,10.589-10.588
				c5.838,0,10.588,4.75,10.588,10.588C429.707,414.885,424.957,419.636,419.119,419.636z M419.119,399.458
				c-5.287,0-9.589,4.301-9.589,9.588c0,5.288,4.302,9.59,9.589,9.59c5.287,0,9.588-4.302,9.588-9.59
				C428.707,403.759,424.406,399.458,419.119,399.458z"/>
		</g>
		<g>
			<path style="fill:#5BA1F4;" d="M62.046,116.713c-11.639,0-21.107-9.469-21.107-21.108c0-11.639,9.469-21.107,21.107-21.107
				s21.107,9.469,21.107,21.107C83.153,107.244,73.685,116.713,62.046,116.713z M62.046,75.498c-11.087,0-20.107,9.02-20.107,20.107
				c0,11.088,9.02,20.108,20.107,20.108s20.107-9.021,20.107-20.108C82.153,84.518,73.133,75.498,62.046,75.498z"/>
		</g>
		<g>
			<path style="fill:#5BA1F4;" d="M156.419,64.435c-7.076,0-12.832-5.756-12.832-12.832c0-7.075,5.756-12.832,12.832-12.832
				c7.075,0,12.831,5.756,12.831,12.832C169.25,58.679,163.495,64.435,156.419,64.435z M156.419,39.771
				c-6.524,0-11.832,5.308-11.832,11.832c0,6.524,5.308,11.832,11.832,11.832c6.523,0,11.831-5.308,11.831-11.832
				C168.25,45.079,162.943,39.771,156.419,39.771z"/>
		</g>
		<g>
			<path style="fill:#5BA1F4;" d="M54.021,228.97c-5.43,0-9.847-4.417-9.847-9.847c0-5.429,4.417-9.846,9.847-9.846
				c5.429,0,9.846,4.417,9.846,9.846C63.867,224.553,59.45,228.97,54.021,228.97z M54.021,210.277c-4.878,0-8.847,3.968-8.847,8.846
				c0,4.878,3.969,8.847,8.847,8.847c4.877,0,8.846-3.969,8.846-8.847C62.867,214.246,58.898,210.277,54.021,210.277z"/>
		</g>
	</g>
</g>
</svg>
